<?xml version="1.0" encoding="UTF-8" standalone="no"?>
<!DOCTYPE svg PUBLIC "-//W3C//DTD SVG 1.1//EN" "http://www.w3.org/Graphics/SVG/1.1/DTD/svg11.dtd">
<!-- Created with Vectornator (http://vectornator.io/) -->
<svg height="100%" stroke-miterlimit="10" style="fill-rule:nonzero;clip-rule:evenodd;stroke-linecap:round;stroke-linejoin:round;" version="1.1" viewBox="0 0 5372.32 5287.27" width="100%" xml:space="preserve" xmlns="http://www.w3.org/2000/svg" xmlns:vectornator="http://vectornator.io" xmlns:xlink="http://www.w3.org/1999/xlink">
<defs>
<clipPath id="TextBounds">
<rect height="1029.98" width="453.323" x="3972.45" y="997.665"/>
</clipPath>
<clipPath id="TextBounds_2">
<rect height="1027.03" width="503.324" x="2534.49" y="4470.8"/>
</clipPath>
<clipPath id="TextBounds_3">
<rect height="1027.03" width="503.324" x="-39.69" y="1406.16"/>
</clipPath>
</defs>
<clipPath id="ArtboardFrame">
<rect height="5287.27" width="5372.32" x="0" y="0"/>
</clipPath>
<g clip-path="url(#ArtboardFrame)" id="Layer_x0020_1" vectornator:layerName="Layer_x0020_1">
<path d="M5009.44 3932.14L771.12 3932.14L1854.09 283.5L5009.44 3932.14Z" fill="none" fill-rule="evenodd" opacity="1" stroke="#000000" stroke-linecap="butt" stroke-linejoin="miter" stroke-width="65.6779"/>
<path clip-path="url(#TextBounds)" d="M4336.39 1635.95L4413.29 1645.98C4404.89 1699.2 4383.38 1740.86 4348.77 1770.96C4314.17 1801.06 4271.66 1816.11 4221.27 1816.11C4158.13 1816.11 4107.38 1795.39 4069 1753.95C4030.63 1712.5 4011.44 1653.1 4011.44 1575.75C4011.44 1525.73 4019.7 1481.96 4036.2 1444.44C4052.71 1406.93 4077.84 1378.79 4111.58 1360.03C4145.32 1341.27 4182.03 1331.89 4221.7 1331.89C4271.81 1331.89 4312.79 1344.62 4344.65 1370.06C4376.51 1395.51 4396.92 1431.65 4405.9 1478.47L4329.88 1490.25C4322.64 1459.13 4309.82 1435.72 4291.43 1420.01C4273.04 1404.31 4250.81 1396.46 4224.75 1396.46C4185.36 1396.46 4153.35 1410.63 4128.74 1438.99C4104.12 1467.34 4091.81 1512.2 4091.81 1573.57C4091.81 1635.8 4103.69 1681.02 4127.43 1709.23C4151.18 1737.44 4182.17 1751.55 4220.4 1751.55C4251.1 1751.55 4276.73 1742.1 4297.29 1723.19C4317.86 1704.29 4330.89 1675.21 4336.39 1635.95Z" fill="#000000" fill-rule="evenodd" opacity="1" stroke="none"/>
<g opacity="1">
<path clip-path="url(#TextBounds_2)" d="M2669.51 5275.94L2596.96 5275.94L2596.96 4639.06L2675.15 4639.06L2675.15 4866.26C2708.17 4824.85 2750.31 4804.14 2801.57 4804.14C2829.96 4804.14 2856.82 4809.86 2882.16 4821.3C2907.5 4832.74 2928.36 4848.82 2944.72 4869.52C2961.08 4890.23 2973.9 4915.21 2983.17 4944.46C2992.44 4973.71 2997.07 5004.99 2997.07 5038.3C2997.07 5117.37 2977.52 5178.48 2938.42 5221.63C2899.32 5264.78 2852.4 5286.36 2797.66 5286.36C2743.22 5286.36 2700.5 5263.63 2669.51 5218.16L2669.51 5275.94ZM2668.64 5041.78C2668.64 5097.09 2676.17 5137.06 2691.23 5161.68C2715.85 5201.94 2749.15 5222.07 2791.15 5222.07C2825.32 5222.07 2854.86 5207.22 2879.77 5177.54C2904.68 5147.85 2917.13 5103.61 2917.13 5044.82C2917.13 4984.58 2905.19 4940.12 2881.29 4911.45C2857.4 4882.77 2828.51 4868.44 2794.62 4868.44C2760.45 4868.44 2730.91 4883.28 2706 4912.97C2681.09 4942.65 2668.64 4985.59 2668.64 5041.78Z" fill="#000000" fill-rule="evenodd" opacity="1" stroke="none"/>
<path d="M737.1 4269.51L1023.43 4124.93L1023.43 4411.26L737.1 4269.51ZM4708.93 4280.85L1009.26 4280.85L1009.26 4255.34L4708.93 4255.34L4708.93 4280.85ZM4981.1 4269.51L4694.76 4411.26L4694.76 4124.93L4981.1 4269.51Z" fill="#000000" fill-rule="evenodd" opacity="1" stroke="none"/>
</g>
<g opacity="1">
<path clip-path="url(#TextBounds_3)" d="M324.273 2154.39C295.311 2179.01 267.435 2196.38 240.644 2206.52C213.854 2216.66 185.11 2221.73 154.41 2221.73C103.726 2221.73 64.7716 2209.35 37.5472 2184.58C10.3227 2159.82-3.28948 2128.18-3.28948 2089.66C-3.28948 2067.07 1.85131 2046.43 12.1329 2027.75C22.4145 2009.07 35.8819 1994.08 52.5351 1982.79C69.1884 1971.49 87.9414 1962.95 108.794 1957.16C124.144 1953.1 147.314 1949.19 178.303 1945.43C241.441 1937.9 287.925 1928.92 317.756 1918.49C318.046 1907.78 318.191 1900.97 318.191 1898.07C318.191 1866.22 310.805 1843.77 296.035 1830.74C276.051 1813.07 246.365 1804.24 206.976 1804.24C170.194 1804.24 143.042 1810.68 125.52 1823.57C107.998 1836.46 95.0371 1859.26 86.6381 1891.99L10.1779 1881.57C17.1289 1848.84 28.5689 1822.41 44.4981 1802.28C60.4273 1782.15 83.4523 1766.66 113.573 1755.8C143.694 1744.94 178.593 1739.51 218.271 1739.51C257.66 1739.51 289.663 1744.14 314.281 1753.41C338.899 1762.68 357 1774.33 368.585 1788.38C380.17 1802.43 388.279 1820.17 392.913 1841.6C395.52 1854.92 396.823 1878.96 396.823 1913.71L396.823 2017.98C396.823 2090.67 398.488 2136.65 401.819 2155.91C405.15 2175.17 411.739 2193.63 421.586 2211.3L339.912 2211.3C331.803 2195.08 326.59 2176.11 324.273 2154.39ZM317.756 1979.75C289.373 1991.33 246.799 2001.18 190.033 2009.29C157.885 2013.92 135.15 2019.14 121.827 2024.93C108.505 2030.72 98.223 2039.19 90.9824 2050.34C83.7419 2061.49 80.1216 2073.87 80.1216 2087.49C80.1216 2108.34 88.0138 2125.72 103.798 2139.62C119.583 2153.52 142.68 2160.47 173.09 2160.47C203.211 2160.47 230.001 2153.88 253.46 2140.7C276.92 2127.53 294.152 2109.5 305.158 2086.62C313.557 2068.95 317.756 2042.88 317.756 2008.42L317.756 1979.75Z" fill="#000000" fill-rule="evenodd" opacity="1" stroke="none"/>
<path d="M371.385 3762.05L314.685 3447.36L589.68 3529.57L371.385 3762.05ZM1391.98 377.055L462.105 3506.89L436.59 3498.39L1366.47 371.385L1391.98 377.055ZM1454.36 113.4L1511.06 428.085L1236.06 348.705L1454.36 113.4Z" fill="#000000" fill-rule="evenodd" opacity="1" stroke="none"/>
</g>
<path d="M2216.97 0L2511.81 121.905L2296.35 309.015L2216.97 0ZM5185.22 3450.2L2384.24 212.625L2404.08 195.615L5205.06 3433.18L5185.22 3450.2ZM5372.32 3648.64L5077.48 3523.9L5292.94 3336.8L5372.32 3648.64Z" fill="#000000" fill-rule="evenodd" opacity="1" stroke="none"/>
<path d="M771.12 3932.14L5009.44 3932.14L1854.09 283.5L771.12 3932.14Z" fill="#ffebd6" fill-rule="evenodd" opacity="1" stroke="#000000" stroke-linecap="butt" stroke-linejoin="miter" stroke-width="26.2711"/>
</g>
</svg>
